<?xml version="1.0" encoding="UTF-8"?>
<svg id="Layer_2" data-name="Layer 2" xmlns="http://www.w3.org/2000/svg" viewBox="0 0 36.57 36.05">
  <defs>
    <style>
      .cls-1 {
        fill: #fff;
      }
    </style>
  </defs>
  <g id="Layer_1-2" data-name="Layer 1">
    <g id="cimUGI.tif">
      <g>
        <path class="cls-1" d="M0,34.98v-10.2c.35-1.6,1.61-2.81,3.34-2.81h5.1s0,12.46,0,12.46c0,.56.08,1.04.23,1.59H1.59c-.78.01-1.3-.36-1.59-1.05Z"/>
        <path class="cls-1" d="M18.72,0l.5.3,1.31,2.63,2.62.29c.32.04.64.34.72.58.12.34.05.75-.19.99l-1.89,1.9.46,2.73c.05.32-.17.7-.38.84-.26.17-.65.23-.92.09l-2.42-1.27-2.29,1.19c-.35.18-.73.21-1.08-.04-.24-.17-.41-.56-.34-.93l.45-2.61-1.81-1.77c-.27-.27-.39-.64-.25-1.03.08-.23.38-.53.71-.58l2.58-.36,1.32-2.61.47-.32h.44Z"/>
        <path class="cls-1" d="M23.78,36.04h-10.94c-.78,0-1.58-.44-1.58-1.34V15.92c0-1.84,1.45-3.31,3.27-3.31h7.52c1.81,0,3.27,1.47,3.27,3.31v18.7c0,.88-.67,1.42-1.54,1.42Z"/>
        <path class="cls-1" d="M36.56,34.67c0,.94-.8,1.38-1.58,1.38h-7.08c.17-.62.23-1.15.23-1.78v-16.04s5.16,0,5.16,0c1.71,0,3.04,1.27,3.28,2.97v13.47Z"/>
      </g>
    </g>
  </g>
</svg>