<?xml version="1.0" encoding="UTF-8"?>
<svg id="Layer_2" data-name="Layer 2" xmlns="http://www.w3.org/2000/svg" viewBox="0 0 33.4 32.51">
  <defs>
    <style>
      .cls-1 {
        fill: #fff;
      }
    </style>
  </defs>
  <g id="Layer_1-2" data-name="Layer 1">
    <path class="cls-1" d="M25.92,0H7.48C3.35,0,0,3.35,0,7.48v11.63c0,4.13,3.35,7.48,7.48,7.48h3.44c.07.19.17.39.31.57l3.37,4.4c.98,1.28,3.15,1.27,4.11-.03l3.67-4.94h3.54c4.13,0,7.48-3.35,7.48-7.48V7.48c0-4.13-3.35-7.48-7.48-7.48ZM24,12.3c-.11.73-.23,1.14-.62,1.81-.23.39-.44.76-.7,1.13-1.39,1.99-3.24,3.67-5.24,5.03-.22.15-.44.24-.69.3h-.35c-.23-.05-.45-.13-.66-.27-1.96-1.35-3.78-2.98-5.17-4.93-.31-.43-.56-.85-.82-1.3-.32-.56-.54-1.14-.58-1.78-.2-2.41,1.83-4.45,4.24-4.27,1.29.1,2.45.79,3.16,1.9.71-1.11,1.89-1.82,3.18-1.9,2.19-.15,4.02,1.5,4.23,3.64v.64Z"/>
  </g>
</svg>