<?xml version="1.0" encoding="UTF-8"?>
<svg id="Layer_2" data-name="Layer 2" xmlns="http://www.w3.org/2000/svg" viewBox="0 0 34.67 34.67">
  <defs>
    <style>
      .cls-1 {
        fill: #fff;
      }
    </style>
  </defs>
  <g id="Layer_1-2" data-name="Layer 1">
    <g id="os29te.tif">
      <path class="cls-1" d="M31.35,0s.13.06.21.06c1.64.13,2.91,1.41,3.05,3.05,0,.08.04.19.06.21v2.33c-.25,2.66-.8,5.22-1.88,7.68-1.41,3.34-3.49,6.29-6.05,8.84-.97.96-1.87,1.87-2.89,2.77l-.02,4.66c0,1-.68,1.81-1.51,2.29l-5.29,2.63c-.42.21-.88.18-1.25-.04-.34-.21-.64-.59-.64-1.05v-3.46c-1.45.39-2.88.2-3.91-.82l-5.61-5.61c-1.12-1.04-1.33-2.51-.93-4.01H1.3c-.49,0-.89-.27-1.12-.65s-.25-.83-.04-1.25l2.69-5.37c.42-.84,1.35-1.42,2.27-1.43l4.61-.02c.83-.95,1.68-1.78,2.56-2.68,2.43-2.48,5.2-4.52,8.37-5.97,2.5-1.14,5.12-1.88,7.86-2.11.21-.02.37,0,.5-.07h2.33ZM28.37,10.94c0-2.56-2.07-4.63-4.63-4.63s-4.63,2.07-4.63,4.63,2.07,4.63,4.63,4.63,4.63-2.07,4.63-4.63Z"/>
    </g>
  </g>
</svg>