<?xml version="1.0" encoding="UTF-8"?>
<svg id="Layer_2" data-name="Layer 2" xmlns="http://www.w3.org/2000/svg" viewBox="0 0 28.09 32.83">
  <defs>
    <style>
      .cls-1 {
        fill: #fff;
      }
    </style>
  </defs>
  <g id="Layer_1-2" data-name="Layer 1">
    <g id="ZFrT2O.tif">
      <path class="cls-1" d="M0,14.41v-.87c0-.12.05-.32.06-.45C.51,6.16,6.03.58,12.96.04c7.8-.6,14.62,5.32,15.08,13.04l.04.66c.15,2.55-1.42,5.58-2.8,7.68-2.53,3.85-5.95,7.43-9.27,10.59-1.17,1.11-2.86,1.07-4.01-.04-2.21-2.13-4.34-4.28-6.3-6.66S1.62,20.03.57,17.04c-.31-.88-.45-1.75-.57-2.64ZM19.73,12.36c0-3.14-2.54-5.68-5.68-5.68s-5.68,2.54-5.68,5.68,2.54,5.68,5.68,5.68,5.68-2.54,5.68-5.68Z"/>
    </g>
  </g>
</svg>