<?xml version="1.0" encoding="UTF-8"?>
<svg id="Layer_2" data-name="Layer 2" xmlns="http://www.w3.org/2000/svg" viewBox="0 0 253.08 200.37">
  <defs>
    <style>
      .cls-1 {
        fill: #fff;
      }
    </style>
  </defs>
  <g id="Layer_1-2" data-name="Layer 1">
    <path class="cls-1" d="M224.91,31.76l-42.94-.1-5.82-13.84C171.57,6.96,161.18.05,149.29.04L103.35,0c-11.48,0-21.54,5.9-26.65,16.18l-7.7,15.47-40.75.08c-12.33.02-28.24,11.15-28.24,25.32v118.15c2.57,14.02,13.8,25.18,28.76,25.18h193.15c10.04-.01,19.33-5.1,25.36-12.7,2.95-3.72,5.74-8.64,5.74-13.65l.07-117.02c-2.51-14.25-13.65-25.2-28.18-25.24ZM126.56,163.47c-29.11,0-52.71-23.6-52.71-52.71s23.6-52.71,52.71-52.71,52.71,23.6,52.71,52.71-23.6,52.71-52.71,52.71Z"/>
  </g>
</svg>