<?xml version="1.0" encoding="UTF-8"?>
<svg id="Layer_2" data-name="Layer 2" xmlns="http://www.w3.org/2000/svg" viewBox="0 0 177.44 177.48">
  <defs>
    <style>
      .cls-1 {
        fill: #fff;
      }
    </style>
  </defs>
  <g id="Layer_1-2" data-name="Layer 1">
    <g>
      <g>
        <path class="cls-1" d="M57.93,162.37l93.36-.11c.63,0,.89-.13,1.21-.25,1.01,3.34-2.06,7.28-5.95,7.28H63.88c-3.91-.02-6.63-3.71-5.95-6.93Z"/>
        <path class="cls-1" d="M152.5,162.01c-.32.11-.58.25-1.21.25l-93.36.11c.3-3.85,3.21-5.82,6.89-5.82l82.53.15c2.87,0,5.23,3.05,5.15,5.31Z"/>
      </g>
      <g>
        <g>
          <path class="cls-1" d="M63.53,17.43l-11.81.08c-.95,0-1.77.75-2.61.5-2.42-2.25-5.38-4.33-8.76-5.05-7.21-1.54-13.48,3.48-16.97,8.74l-13.72-.35c2.38-5.58,5.78-10.71,10.64-14.74,11.13-9.22,24.91-8.67,35.74.96,1.91,1.7,7.29,7.66,7.47,9.87Z"/>
          <path class="cls-1" d="M67.72,33.25c.09,4.05.58,8.17.06,12.36l-.82,6.67h-12.49c.42-2.38.28-5.18.62-7.81.49-3.85.62-7.55.16-11.22h12.48Z"/>
          <path class="cls-1" d="M65.43,61.07c-.92,6.2-2.64,12.28-4.33,18.32l-12.9-.08,4.7-18.25c4.16-.22,8.36-.23,12.52,0Z"/>
          <path class="cls-1" d="M63.53,17.43c2.67,3.11,4.1,11.73,4.2,15.82h-12.48c-.42-3.41-.9-7.05-2.72-10.21-.95-1.64-2.12-3.83-3.42-5.03.84.25,1.66-.49,2.61-.5l11.81-.08Z"/>
          <path class="cls-1" d="M23.38,21.69c-2.97,4.47-4.26,10.48-5.5,15.51-4.17-.14-8.34-.13-12.51,0,.69-5.51,2.14-10.8,4.29-15.85l13.72.35Z"/>
          <path class="cls-1" d="M19.78,63.79c1.34,5.18,3.42,10.2,5.49,15.12h-11.15c-.83,0-1.51.38-2.16.43-2.04-4.9-3.67-9.84-4.69-15.06,3.42-.47,9.69.44,12.52-.49Z"/>
          <path class="cls-1" d="M17.47,49.1c-.11,4.88,1.08,9.92,2.31,14.7-2.83.93-9.09.02-12.52.49-.98-5.01-2.4-10.01-2.3-15.2,4.16-.15,8.34-.16,12.5.01Z"/>
          <path class="cls-1" d="M25.27,78.91c.53,1.27,6.19,12.63,6.52,13.14l-12.27.09c-.62,0-1.11.09-1.51.28-2.55-4.13-4.2-8.61-6.05-13.08.65-.05,1.33-.44,2.16-.44h11.15Z"/>
          <path class="cls-1" d="M17.88,37.2c.15.58-.17,1.63-.19,2.35l-.22,9.55c-4.16-.17-8.34-.16-12.5-.01.05-2.72-.4-5.52-.03-8.42l.44-3.47c4.17-.12,8.34-.13,12.51,0Z"/>
          <path class="cls-1" d="M38.31,101.93l-11.43.04c-1.12,0-2.11.15-2.96.53-2.52-3.03-3.87-6.77-5.91-10.08.41-.19.89-.27,1.51-.28l12.27-.09,6.52,9.88Z"/>
          <path class="cls-1" d="M61.1,79.4c-.85,3.05-1.86,5.93-3.01,8.79-4.21-.18-8.47.34-12.59-.26.16-2.94,1.98-5.79,2.7-8.61l12.9.08Z"/>
          <path class="cls-1" d="M66.96,52.27c-.37,2.97-1.1,5.89-1.53,8.8-4.16-.23-8.36-.23-12.52,0l1.56-8.8h12.49Z"/>
          <path class="cls-1" d="M58.09,88.19c-.97,2.41-1.44,5.15-2.4,7.69l-12.9-.31c.25-.8,1.45-6.19,2.71-7.65,4.12.6,8.38.08,12.59.26Z"/>
          <path class="cls-1" d="M55.69,95.88l-2.68,7.07-12.91-.15c-.83-.43,3.15-8.7,2.69-7.23l12.9.31Z"/>
        </g>
        <g>
          <path class="cls-1" d="M132.65,81.85l2.69,2.65,2.79,3.67-16.03.4c-.75-.87-2.83-1.71-3.98-1.76-2.73-.11-4.47,1.97-6.66,2.91l-37.79-.26c-.69,0-1.15-.21-1.5-.49,1.3-1.34,2.25-2.59,4.17-3.59,6.89-3.6,13.94-1.97,19.34,3.78,1.59-3.3,4.25-5.02,6.36-7.31.56.5,1.3.21,2.16.21l26.28-.02c.87.35,1.61.2,2.17-.2Z"/>
          <path class="cls-1" d="M111.47,89.73c-3.12,3.8-3.83,3.56-6.65,8.22l-17.6.22c-1.87-1.67-3.39-2.83-5.44-1.54-.37-.23-.9-.32-1.52-.33l-13.53-.05c-.34,0-.73-.07-.78-.26.66-.75,1.3-1.85,1.93-2.74,1.29-1.81,2.96-2.87,4.32-4.28.35.28.81.49,1.5.49l37.79.26Z"/>
          <path class="cls-1" d="M64.26,118.72c-2.08,2.83-4.3,5.56-7.58,7.38-4.5,2.49-9.39,2.66-13.81-.22-.15,1.6-1.45,2.35-1.71,3.28l-13.44-.38c1.33-3.6,3.24-7.02,5.07-10.41.63.26,1.36.19,2.24-.03h28.19c.5,0,.83.2,1.05.39Z"/>
          <path class="cls-1" d="M41.16,129.15c-.65,2.27-1.94,4.26-3.18,6.46l-6.29,11.11c-.65,1.16-1.21,2.31-2.17,3-.74-.39-1.62-.45-2.63-.45l-11.47-.04,10.45-17.58c.63-1.06,1.01-2.2,1.84-2.87l13.44.38Z"/>
          <path class="cls-1" d="M177.08,95.88c-.51,1.55-1.27,2.66-2.78,3.69-1.16.79-4.03,3.73-5.21,3.67-.25-.19-.59-.37-1.12-.37h-31.27c-.49.07-.81.15-1.05.35.12.12-6.21-5.01-5.55-5.88-.04-.26.42-.35.78-.35l17.32-.24c3.3,1.39,7.61.08,10.58-1.54.24.27.63.43,1.14.43l17.15.24Z"/>
          <path class="cls-1" d="M29.52,149.72c-.06.76-.58,1.51-1.09,2.26-2.87,4.29-5.63,8.44-8.65,12.41l-15.32-.31c0-.76.67-1.1,1.14-1.74l9.82-13.12,11.47.04c1.01,0,1.89.07,2.63.45Z"/>
          <path class="cls-1" d="M105.71,107.9c1.66,4.81,1.74,5.5,1.82,10.82l-21.75.03c-.32-3.5.43-7.48,1.47-10.82l18.46-.03Z"/>
          <path class="cls-1" d="M107.53,118.72c.05,3.51-.82,7.22-3.44,9.98-2.47,2.59-6.05,3.34-9.82,2.58-2.78-.56-5.66-2.91-7.08-5.98-1-2.16-1.21-4.37-1.41-6.55l21.75-.03Z"/>
          <path class="cls-1" d="M132.65,81.85c-.56.4-1.3.55-2.17.2l-26.28.02c-.86,0-1.6.29-2.16-.21,3.68-4.02,8.78-6.92,14.47-7.58,4.49-.52,8.48.97,11.9,3.58,1.68,1.29,2.86,2.65,4.23,4Z"/>
          <path class="cls-1" d="M19.78,164.39l-4.94,6.47c-.87,1.14-2.05,2.13-2.84,3.29-2.29,3.36-6.57,4.51-9.68,1.86s-3.17-6.82-.12-9.71c.77-.73,1.18-1.95,2.25-2.22l15.32.31Z"/>
          <path class="cls-1" d="M38.31,101.93l.78,1.22c.21.33.81-.24,1.01-.35l12.91.15c-.78,2.06-1.33,4.22-2.58,6.12l-20.07-.23c-.83,0-1.53.17-2.12.34-1.9-1.87-2.68-4.71-4.32-6.68.85-.38,1.84-.52,2.96-.53l11.43-.04Z"/>
          <path class="cls-1" d="M104.81,97.95c-.47.78-1.24,1.91-1.45,2.95,1.57,2.16,1.61,4.86,2.34,7l-18.46.03c.66-2.11.74-4.4,2.12-6.64-.92-1.09-1.3-2.35-2.16-3.12l17.6-.22Z"/>
          <path class="cls-1" d="M169.09,103.24c-10.03,8.18-23.53,9.57-33.44-.02.24-.19.55-.28,1.05-.35h31.27c.52,0,.87.18,1.12.37Z"/>
          <path class="cls-1" d="M148.2,96.75l-17.32.24c-.37,0-.82.09-.78.35-1.1-.47-4.09-4.25-5.36-5.72l-2.64-3.05,16.03-.4,2.9,2.99c2.22,2.29,4.44,4.26,7.17,5.59Z"/>
          <path class="cls-1" d="M48.44,114.12c.12.48.49.84.86.98,1.2.48,1.81-.6,2.79-1.03l15.31.39-3.13,4.26c-.22-.18-.55-.39-1.05-.39h-28.19c-.87.22-1.61.29-2.24.03.55-1.01.93-2.6-.1-3.62.19-.27.62-.38,1.12-.39l14.63-.23Z"/>
          <path class="cls-1" d="M50.43,109.07c-.92,1.39-.83,3.69-1.99,5.06l-14.63.23c-.5,0-.93.11-1.12.39-2.99-2.97-4.15-5.28-4.44-5.57.59-.17,1.29-.35,2.12-.34l20.07.23Z"/>
          <path class="cls-1" d="M177.08,95.88l-17.15-.24c-.51,0-.9-.17-1.14-.43,7.45-4.05,8.77-8.63,14.18-7.25,3.21.82,5.37,4.11,4.11,7.92Z"/>
          <path class="cls-1" d="M81.77,96.63c-.81,1.51-2.46,2.37-3.51,3.87-.67.96-1.45,1.9-2.35,2.37-.26-.2-.62-.32-1.11-.41l-13.75.02c.92-1.18,1.45-2.61,2.57-3.87l2.32-2.61c.06.19.44.26.78.26l13.53.05c.63,0,1.15.1,1.52.33Z"/>
          <path class="cls-1" d="M75.91,102.87c-.71,2.38-3.38,4.02-4.57,6.06l-14.3-.56c-.29-1.09,3.65-5.43,4.01-5.89l13.75-.02c.49.09.85.21,1.11.41Z"/>
          <path class="cls-1" d="M71.34,108.93c-1.17,2.02-2.58,3.67-3.95,5.53l-15.31-.39c1.68-1.84,2.97-4.23,4.96-5.7l14.3.56Z"/>
        </g>
      </g>
    </g>
  </g>
</svg>