<?xml version="1.0" encoding="UTF-8"?>
<svg id="Layer_2" data-name="Layer 2" xmlns="http://www.w3.org/2000/svg" viewBox="0 0 235.97 235.92">
  <defs>
    <style>
      .cls-1 {
        fill: #fff;
      }
    </style>
  </defs>
  <g id="Layer_1-2" data-name="Layer 1">
    <path class="cls-1" d="M235.97,108.77v18.43c-.77.2-.33,1.03-.41,1.89-5.09,56.14-50.26,101.34-106.42,106.43-.86.08-1.69-.37-1.89.4h-18.43c-26.6-2.64-51.11-12.9-70.69-31.12-2.68-2.1-4.65-4.36-6.97-6.9C13.16,178.22,2.14,153.37.3,126.64-1.97,93.7,8.72,62.96,30.7,38.51,47.79,19.5,77.29,2.86,102.3,1l4.68-.35,5.98-.48c3.06-.25,6.17-.19,9.22.01l6.88.46c25.45,1.69,50.23,13.4,68.91,30.44,2.58,2.36,4.6,4.46,6.93,6.98,18.24,19.65,28.49,44.39,31.08,70.72ZM172.69,132.48c3.56-2.04,6.22-4.56,7.56-7.84,3.63-8.83-.09-16.94-7.93-21.45l-74.73-42.99c-2.64-1.52-5.47-2.23-8.56-1.97-7.45.64-15.03,6.56-15.04,14.8l-.1,89.42c0,5.5,3.4,10.06,7.32,12.57,4.36,2.8,10.34,4.09,15.17,1.31l76.3-43.86Z"/>
  </g>
</svg>